<?xml version="1.0" encoding="UTF-8"?>
<svg version="1.1" xmlns="http://www.w3.org/2000/svg" width="124" height="126">
<path d="M0 0 C40.92 0 81.84 0 124 0 C124 41.58 124 83.16 124 126 C83.08 126 42.16 126 0 126 C0 84.42 0 42.84 0 0 Z " fill="#FCFBFB" transform="translate(0,0)"/>
<path d="M0 0 C2.6875 2.5 2.6875 2.5 5 5 C3.31160356 10.06518931 -1.05685128 13.07117502 -5 16.5 C-6.33349007 17.66648752 -7.66683285 18.83314344 -9 20 C-9.82177734 20.70189453 -9.82177734 20.70189453 -10.66015625 21.41796875 C-12.23278151 22.78329021 -12.23278151 22.78329021 -14 25 C-13.65980572 28.22885127 -12.49526413 29.87480424 -10.22436523 32.11621094 C-9.64383896 32.69651062 -9.06331268 33.2768103 -8.4651947 33.87469482 C-7.52142723 34.79523651 -7.52142723 34.79523651 -6.55859375 35.734375 C-5.91632339 36.37240051 -5.27405304 37.01042603 -4.61231995 37.66778564 C-2.56098274 39.70234118 -0.49945727 41.72621379 1.5625 43.75 C2.95576234 45.12821491 4.34834898 46.50711325 5.74023438 47.88671875 C9.15236865 51.26579046 12.57367707 54.63531864 16 58 C14.02 60.31 12.04 62.62 10 65 C2.69712335 58.86054877 -4.05608048 52.23695783 -10.82763672 45.52246094 C-12.28492299 44.0818799 -13.74757263 42.64670574 -15.21533203 41.21679688 C-17.34316312 39.14340418 -19.45436899 37.05433405 -21.5625 34.9609375 C-22.55443359 34.00300797 -22.55443359 34.00300797 -23.56640625 33.02572632 C-24.16453125 32.42475128 -24.76265625 31.82377625 -25.37890625 31.20458984 C-26.17663452 30.41899185 -26.17663452 30.41899185 -26.99047852 29.61752319 C-28 28 -28 28 -27.80563354 25.96578979 C-26.52021486 22.82929809 -24.13016216 20.70349856 -21.7578125 18.359375 C-21.23363739 17.83232971 -20.70946228 17.30528442 -20.16940308 16.76226807 C-19.06177163 15.65259868 -17.95035672 14.54669469 -16.83544922 13.44433594 C-15.12757581 11.75255154 -13.43632044 10.04533222 -11.74609375 8.3359375 C-10.66762755 7.25945315 -9.58823142 6.18389948 -8.5078125 5.109375 C-8.00146271 4.59695251 -7.49511292 4.08453003 -6.97341919 3.55657959 C-3.34491136 0 -3.34491136 0 0 0 Z " fill="#686868" transform="translate(97,37)"/>
<path d="M0 0 C7.63670736 3.52591959 13.67719251 10.19680147 19 16.5625 C21.43195146 19.44227883 24.00554608 21.69657391 27 24 C31.29801483 28.07180353 35.14090008 32.51810586 39 37 C33.89551178 43.18134869 28.31705058 48.79822878 22.625 54.4375 C21.69816406 55.35982422 20.77132812 56.28214844 19.81640625 57.23242188 C17.54654154 59.49058625 15.27436462 61.74636942 13 64 C10.1394109 62.64062915 8.14072301 61.35479531 6 59 C7.45745424 55.63664406 9.31117854 53.45465995 11.9140625 50.890625 C12.67460937 50.13652344 13.43515625 49.38242188 14.21875 48.60546875 C15.0128125 47.82816406 15.806875 47.05085938 16.625 46.25 C17.42679688 45.45722656 18.22859375 44.66445312 19.0546875 43.84765625 C21.03202846 41.89385507 23.01388909 39.94487897 25 38 C19.33425951 31.07189276 12.96966361 24.85795858 6.625 18.5625 C5.49586045 17.43838533 4.36695222 16.31403826 3.23828125 15.18945312 C0.49484812 12.45694765 -2.25169985 9.72760991 -5 7 C-3.64062915 4.1394109 -2.35479531 2.14072301 0 0 Z " fill="#6C6B6B" transform="translate(15,26)"/>
<path d="M0 0 C2.8605891 1.35937085 4.85927699 2.64520469 7 5 C5.4975457 8.5432211 3.43747735 10.77071524 0.6875 13.4375 C-0.116875 14.22511719 -0.92125 15.01273438 -1.75 15.82421875 C-2.4925 16.54222656 -3.235 17.26023437 -4 18 C-6.49065818 20.43531022 -8.80510373 22.74852094 -10.9375 25.5 C-13.34914516 28.42320625 -16.0672892 30.60595036 -19 33 C-21.6048331 35.54130058 -24.11136602 38.12223099 -26.5625 40.8125 C-29 43 -29 43 -33 43 C-35.11198429 41.23688701 -36.9616264 39.50345572 -38.859375 37.53125 C-39.40861633 36.97634888 -39.95785767 36.42144775 -40.52374268 35.84973145 C-42.27543497 34.07565271 -44.0127106 32.28817436 -45.75 30.5 C-46.93527418 29.29466385 -48.12146166 28.09022508 -49.30859375 26.88671875 C-52.21642842 23.93478668 -55.11140921 20.97076077 -58 18 C-56.02 15.69 -54.04 13.38 -52 11 C-44.84198775 16.82628904 -38.47408234 23.4382985 -32 30 C-29.19030533 28.71977125 -27.1460762 27.39285871 -24.97558594 25.20263672 C-24.41530701 24.64220673 -23.85502808 24.08177673 -23.277771 23.50436401 C-22.68595032 22.90222076 -22.09412964 22.30007751 -21.484375 21.6796875 C-20.86854553 21.06102814 -20.25271606 20.44236877 -19.6182251 19.80496216 C-17.65739664 17.83296186 -15.70364699 15.85411263 -13.75 13.875 C-12.41973201 12.53469836 -11.089008 11.19484917 -9.7578125 9.85546875 C-6.4998985 6.57553411 -3.24831467 3.28944058 0 0 Z " fill="#9A2D44" transform="translate(92,12)"/>
<path d="M0 0 C4.00613362 2.00306681 6.56682883 4.30860166 9.640625 7.4453125 C10.43119293 8.24012527 10.43119293 8.24012527 11.23773193 9.05099487 C12.91325675 10.73767825 14.58167722 12.43119564 16.25 14.125 C17.38755851 15.27259388 18.52557436 16.41973461 19.6640625 17.56640625 C22.44803465 20.37238137 25.2256576 23.18450464 28 26 C26.02 28.31 24.04 30.62 22 33 C14.84198775 27.17371096 8.47408234 20.5617015 2 14 C-2.16892869 15.63620256 -4.9589361 18.68780136 -8.04296875 21.8125 C-8.61203445 22.38202393 -9.18110016 22.95154785 -9.76741028 23.53833008 C-10.96572498 24.7396588 -12.16161539 25.94340998 -13.35522461 27.14941406 C-15.18615831 28.9986449 -17.0250089 30.83970762 -18.86523438 32.6796875 C-20.0291196 33.84848675 -21.19254707 35.01774205 -22.35546875 36.1875 C-22.90647751 36.73962158 -23.45748627 37.29174316 -24.02519226 37.8605957 C-26.8602379 40.66851934 -26.8602379 40.66851934 -29 44 C-29.99 44 -30.98 44 -32 44 C-34.475 40.535 -34.475 40.535 -37 37 C-24.79 24.79 -12.58 12.58 0 0 Z " fill="#9F233A" transform="translate(60,71)"/>
<path d="M0 0 C2.9576473 2.29217666 3.81597278 3.44791835 5 7 C5.47469459 14.05061082 5.47469459 14.05061082 4 17 C5.65 15.68 7.3 14.36 9 13 C9.495 14.485 9.495 14.485 10 16 C5.05 20.95 0.1 25.9 -5 31 C-8.37293565 29.31353217 -9.93346994 28.30850283 -12.453125 25.7421875 C-13.071875 25.11699219 -13.690625 24.49179687 -14.328125 23.84765625 C-14.96234375 23.19667969 -15.5965625 22.54570313 -16.25 21.875 C-16.8996875 21.21628906 -17.549375 20.55757812 -18.21875 19.87890625 C-19.81711727 18.25703357 -21.41061897 16.6306719 -23 15 C-19.28125 13.8828125 -19.28125 13.8828125 -16.75 14.9375 C-15.88375 15.4634375 -15.88375 15.4634375 -15 16 C-15 14.42799225 -15.04444398 12.85597907 -15.10546875 11.28515625 C-15.13253906 10.22167969 -15.15960938 9.15820312 -15.1875 8.0625 C-15.22230469 7.00160156 -15.25710937 5.94070312 -15.29296875 4.84765625 C-15 2 -15 2 -13.67578125 0.18359375 C-9.14652879 -3.01538876 -4.89875964 -1.66540111 0 0 Z " fill="#F9EBEE" transform="translate(67,12)"/>
<path d="M0 0 C2.5625 1.5 2.5625 1.5 4 4 C4.58771847 8.62828294 4.62113076 10.83227417 2.4375 14.9375 C-0.74054585 17.62661572 -2.87326713 17.92630834 -7 18 C-10.28562232 17.17859442 -10.92624364 16.1119062 -12.8125 13.25 C-14.1802634 9.50664753 -14.22900739 7.768956 -13 4 C-9.85370286 -0.98163714 -5.38738363 -0.94897033 0 0 Z " fill="#6D6D6D" transform="translate(109,56)"/>
<path d="M0 0 C2.4375 1.5625 2.4375 1.5625 4 4 C4.70476018 8.93332128 4.77041398 10.84437903 2 15 C-2.15562097 17.77041398 -4.06667872 17.70476018 -9 17 C-12.34238038 14.85744848 -12.89167954 13.39717502 -13.9375 9.5625 C-14.00779003 5.55596849 -13.53249114 4.05645482 -11 1 C-7.44544736 -1.79286279 -4.2131487 -1.05328717 0 0 Z " fill="#A21F38" transform="translate(67,12)"/>
<path d="M0 0 C3 1.9375 3 1.9375 5 5 C5.43486198 8.25856578 5.13197647 10.91435855 4 14 C1.375 16.625 1.375 16.625 -2 18 C-5.47066004 17.94117525 -7.84684787 17.65345287 -10.875 15.9375 C-12.70006784 12.79432761 -13.25113651 9.57869527 -13 6 C-9.4966997 0.32223745 -6.57502891 -0.66864701 0 0 Z " fill="#A31F36" transform="translate(64,98)"/>
<path d="M0 0 C3.46145669 0.86536417 4.94931405 2.62635769 6.9375 5.484375 C7.49098638 9.35877968 7.23718563 12.26481512 4.9375 15.484375 C1.70955762 17.79004813 -1.17816819 17.80806932 -5.0625 17.484375 C-7.65221247 16.62113751 -8.72750737 15.95336468 -10.3125 13.734375 C-11.32078913 10.7095076 -11.51591075 8.65825027 -11.0625 5.484375 C-7.96567477 1.03268873 -5.27078558 -0.35937174 0 0 Z " fill="#6C6C6C" transform="translate(20.0625,53.515625)"/>
<path d="M0 0 C2.6875 2.5 2.6875 2.5 5 5 C3.08273176 10.75180471 -2.6475331 14.47165909 -7.12890625 18.3515625 C-9.17403506 20.15332526 -11.11249792 22.033852 -13 24 C-14 21 -14 21 -13 18 C-12.01 17.34 -11.02 16.68 -10 16 C-10.33 15.34 -10.66 14.68 -11 14 C-11.99 14 -12.98 14 -14 14 C-14 14.99 -14 15.98 -14 17 C-16.91239281 21.6598285 -19.99865294 22.99946117 -25 25 C-26.88029239 26.53951047 -26.88029239 26.53951047 -28 28 C-27.54590995 23.65977386 -24.70804187 21.27450269 -21.7578125 18.359375 C-21.23363739 17.83232971 -20.70946228 17.30528442 -20.16940308 16.76226807 C-19.06177163 15.65259868 -17.95035672 14.54669469 -16.83544922 13.44433594 C-15.12757581 11.75255154 -13.43632044 10.04533222 -11.74609375 8.3359375 C-10.66762755 7.25945315 -9.58823142 6.18389948 -8.5078125 5.109375 C-8.00146271 4.59695251 -7.49511292 4.08453003 -6.97341919 3.55657959 C-3.34491136 0 -3.34491136 0 0 0 Z " fill="#6B6B6B" transform="translate(97,37)"/>
<path d="M0 0 C5.29012124 4.40843437 10.18808428 9.07559794 15 14 C13.6875 16.5 13.6875 16.5 12 19 C11.01 19 10.02 19 9 19 C8.67 19.99 8.34 20.98 8 22 C1.73 15.73 -4.54 9.46 -11 3 C-7.71023192 1.90341064 -6.28696233 2.20046862 -3 3 C-2.67 2.34 -2.34 1.68 -2 1 C-1.34 0.67 -0.68 0.34 0 0 Z " fill="#F6F0F1" transform="translate(79,75)"/>
<path d="M0 0 C2.99533617 1.2253648 4.0041711 2.37238912 6.125 4.75 C7.82669628 6.68576061 7.82669628 6.68576061 9.75 8.125 C13.5936445 8.24614604 13.5936445 8.24614604 16.75 7.125 C17.08 9.435 17.41 11.745 17.75 14.125 C16.76 14.125 15.77 14.125 14.75 14.125 C14.42 15.445 14.09 16.765 13.75 18.125 C11.77 18.125 9.79 18.125 7.75 18.125 C7.5025 17.34125 7.255 16.5575 7 15.75 C5.54075497 12.68558543 4.69985044 12.50774239 1.75 11.125 C1.08333333 9.79166667 0.41666667 8.45833333 -0.25 7.125 C-2.26669827 5.99149466 -2.26669827 5.99149466 -4.25 5.125 C-4.58 4.465 -4.91 3.805 -5.25 3.125 C-3.5770537 0.92375487 -2.81201885 0.15622327 0 0 Z " fill="#9F213A" transform="translate(50.25,33.875)"/>
<path d="M0 0 C1.65 0.66 3.3 1.32 5 2 C5 2.99 5 3.98 5 5 C4.01 5 3.02 5 2 5 C1.690625 6.423125 1.690625 6.423125 1.375 7.875 C0.92125 8.90625 0.4675 9.9375 0 11 C-3.0625 12.1875 -3.0625 12.1875 -6 13 C-6.33 13.99 -6.66 14.98 -7 16 C-11.33333333 20.66666667 -11.33333333 20.66666667 -14 22 C-14.99 21.01 -15.98 20.02 -17 19 C-16.505 17.515 -16.505 17.515 -16 16 C-15.01 16 -14.02 16 -13 16 C-13 15.34 -13 14.68 -13 14 C-12.34 14 -11.68 14 -11 14 C-10.95875 13.401875 -10.9175 12.80375 -10.875 12.1875 C-10 10 -10 10 -6.9375 8.25 C-5.4834375 7.63125 -5.4834375 7.63125 -4 7 C-4.66 6.67 -5.32 6.34 -6 6 C-4.35 5.67 -2.7 5.34 -1 5 C-0.67 3.35 -0.34 1.7 0 0 Z " fill="#A11F37" transform="translate(43,90)"/>
<path d="M0 0 C0 2.83967231 -0.40267181 5.23735711 -1 8 C-1.99 8.33 -2.98 8.66 -4 9 C-4.33 9.66 -4.66 10.32 -5 11 C-5.825 11.309375 -6.65 11.61875 -7.5 11.9375 C-8.325 12.288125 -9.15 12.63875 -10 13 C-10.33 13.99 -10.66 14.98 -11 16 C-11.66 16 -12.32 16 -13 16 C-13 16.66 -13 17.32 -13 18 C-13.99 18 -14.98 18 -16 18 C-16 19.32 -16 20.64 -16 22 C-15.01 22.33 -14.02 22.66 -13 23 C-12.443125 22.2575 -11.88625 21.515 -11.3125 20.75 C-7.97215773 16.77770108 -5.11622004 14.08394492 0 13 C-1.42355424 14.66081328 -2.847951 16.32076475 -4.27734375 17.9765625 C-5.41275408 19.31021908 -6.53057441 20.65908283 -7.62890625 22.0234375 C-8.40041016 22.97089844 -8.40041016 22.97089844 -9.1875 23.9375 C-9.65542969 24.52402344 -10.12335937 25.11054687 -10.60546875 25.71484375 C-12 27 -12 27 -15 27 C-16.65 24.69 -18.3 22.38 -20 20 C-13.4 13.4 -6.8 6.8 0 0 Z " fill="#943749" transform="translate(43,88)"/>
<path d="M0 0 C0.66 0.33 1.32 0.66 2 1 C1.175 1.763125 0.35 2.52625 -0.5 3.3125 C-3.34055197 5.75434142 -3.34055197 5.75434142 -3 9 C-3 9.99 -3 10.98 -3 12 C-0.36 12.33 2.28 12.66 5 13 C5 13.99 5 14.98 5 16 C4.67 15.67 4.34 15.34 4 15 C-0.25614994 14.50890578 -2.36003448 14.58668893 -6 16.9375 C-8.52289277 20.80067955 -8.1635031 22.80161306 -7.39453125 27.20703125 C-7.26433594 27.79871094 -7.13414063 28.39039062 -7 29 C-7.66 29.33 -8.32 29.66 -9 30 C-9.39143394 28.25360243 -9.76254287 26.50264082 -10.125 24.75 C-10.33382812 23.77546875 -10.54265625 22.8009375 -10.7578125 21.796875 C-11.0202996 18.76557234 -10.61988849 17.51982654 -9 15 C-9.66 15 -10.32 15 -11 15 C-11.33 15.66 -11.66 16.32 -12 17 C-13.32 16.67 -14.64 16.34 -16 16 C-10.72 10.72 -5.44 5.44 0 0 Z " fill="#F6E0E4" transform="translate(60,84)"/>
<path d="M0 0 C5.66129431 4.69766975 10.85228904 9.74723372 16 15 C13.03 18.465 13.03 18.465 10 22 C5.08064098 17.88380164 0.47352044 13.59589638 -4 9 C-2.68 8.01 -1.36 7.02 0 6 C0 7.32 0 8.64 0 10 C0.99 10.33 1.98 10.66 3 11 C3 11.66 3 12.32 3 13 C3.66 13 4.32 13 5 13 C5 13.66 5 14.32 5 15 C5.99 14.67 6.98 14.34 8 14 C8 14.99 8 15.98 8 17 C8.66 17 9.32 17 10 17 C9.67 15.02 9.34 13.04 9 11 C8.01 11 7.02 11 6 11 C6 10.01 6 9.02 6 8 C5.34 8 4.68 8 4 8 C4 7.34 4 6.68 4 6 C3.01 5.67 2.02 5.34 1 5 C0.67 3.35 0.34 1.7 0 0 Z " fill="#93293E" transform="translate(72,82)"/>
<path d="M0 0 C4 2 4 2 5 4 C3.35 4 1.7 4 0 4 C0 4.99 0 5.98 0 7 C-1.98 7.66 -3.96 8.32 -6 9 C-5.79375 9.598125 -5.5875 10.19625 -5.375 10.8125 C-5 13 -5 13 -7 16 C-7.66 16 -8.32 16 -9 16 C-9.33 16.99 -9.66 17.98 -10 19 C-11.32 18.67 -12.64 18.34 -14 18 C-14.33 19.65 -14.66 21.3 -15 23 C-15.66 23 -16.32 23 -17 23 C-17 22.01 -17 21.02 -17 20 C-17.66 19.67 -18.32 19.34 -19 19 C-12.73 12.73 -6.46 6.46 0 0 Z " fill="#9A1E37" transform="translate(92,12)"/>
<path d="M0 0 C0.66 0.33 1.32 0.66 2 1 C1.67 1.99 1.34 2.98 1 4 C-0.32 4 -1.64 4 -3 4 C-3 5.32 -3 6.64 -3 8 C-3.99 8.495 -3.99 8.495 -5 9 C-5.144375 9.61875 -5.28875 10.2375 -5.4375 10.875 C-6.12447702 13.47024652 -6.77642291 14.49114412 -9 16 C-11.6875 15.6875 -11.6875 15.6875 -14 15 C-14.33 13.68 -14.66 12.36 -15 11 C-14.01 10.67 -13.02 10.34 -12 10 C-10.77479736 6.99152582 -10.77479736 6.99152582 -10 4 C-9.34 4 -8.68 4 -8 4 C-8 4.99 -8 5.98 -8 7 C-7.5875 6.175 -7.175 5.35 -6.75 4.5 C-6.1725 3.675 -5.595 2.85 -5 2 C-3.68 2 -2.36 2 -1 2 C-0.67 1.34 -0.34 0.68 0 0 Z " fill="#A11F37" transform="translate(83,28)"/>
<path d="M0 0 C1.04449911 3.13349732 0.93423645 3.98968256 0 7 C0.66 7 1.32 7 2 7 C2 10.4810594 1.41017908 12.51611009 -0.84765625 15.1796875 C-2.8570482 17.17135994 -4.89457519 19.11039323 -7 21 C-7.33 20.34 -7.66 19.68 -8 19 C-7.0625 16.875 -7.0625 16.875 -6 15 C-5.01 15 -4.02 15 -3 15 C-3.75150023 11.72226496 -3.75150023 11.72226496 -7 10 C-6.42424336 6.64749299 -5.40693737 5.06181371 -2.9375 2.75 C-2.38964844 2.22921875 -1.84179688 1.7084375 -1.27734375 1.171875 C-0.64505859 0.59179688 -0.64505859 0.59179688 0 0 Z " fill="#9F2037" transform="translate(51,80)"/>
<path d="M0 0 C1.32 0 2.64 0 4 0 C4.33 0.99 4.66 1.98 5 3 C5.66 3.33 6.32 3.66 7 4 C7 4.66 7 5.32 7 6 C7.66 6 8.32 6 9 6 C9 6.99 9 7.98 9 9 C9.99 9 10.98 9 12 9 C14 12 14 12 13.625 14.1875 C13.41875 14.785625 13.2125 15.38375 13 16 C12.01 15.67 11.02 15.34 10 15 C10 14.34 10 13.68 10 13 C9.34 13 8.68 13 8 13 C8 12.34 8 11.68 8 11 C7.34 11 6.68 11 6 11 C6 10.34 6 9.68 6 9 C4.68 8.67 3.36 8.34 2 8 C2 7.01 2 6.02 2 5 C1.01 5 0.02 5 -1 5 C-0.67 3.35 -0.34 1.7 0 0 Z " fill="#A21E36" transform="translate(69,84)"/>
<path d="M0 0 C2.4375 1.5625 2.4375 1.5625 4 4 C4.55343865 6.77860435 4.59121128 9.22585478 4 12 C2 14.5 2 14.5 0 16 C0.33 12.37 0.66 8.74 1 5 C0.34 4.67 -0.32 4.34 -1 4 C-0.67 3.67 -0.34 3.34 0 3 C-2.64 2.67 -5.28 2.34 -8 2 C-8.33 2.99 -8.66 3.98 -9 5 C-9.66 5 -10.32 5 -11 5 C-11 3.68 -11 2.36 -11 1 C-7.21908853 -1.5710198 -4.32093764 -1.08023441 0 0 Z " fill="#93374D" transform="translate(67,12)"/>
<path d="M0 0 C2.9375 2.125 2.9375 2.125 5 5 C5.3125 8.3125 5.3125 8.3125 5 11 C4.731875 10.38125 4.46375 9.7625 4.1875 9.125 C3.04443152 6.7004767 3.04443152 6.7004767 0 5 C0 4.01 0 3.02 0 2 C-5.58500567 2.19898708 -5.58500567 2.19898708 -10 5 C-10.24287489 7.44012949 -10.24287489 7.44012949 -10.125 10.125 C-10.10695312 11.03507812 -10.08890625 11.94515625 -10.0703125 12.8828125 C-10.04710937 13.58148438 -10.02390625 14.28015625 -10 15 C-10.66 14.67 -11.32 14.34 -12 14 C-13.62885738 7.01918265 -13.62885738 7.01918265 -11.1875 3.0625 C-7.5291086 -0.38684047 -4.99330376 -0.5077936 0 0 Z " fill="#903B4C" transform="translate(64,98)"/>
<path d="M0 0 C3 0 3 0 5.6875 2.5 C6.450625 3.325 7.21375 4.15 8 5 C6.62673398 9.11979807 3.91404908 12.04297546 0 14 C-1.625 11.75 -1.625 11.75 -3 9 C-2.1875 6.6875 -2.1875 6.6875 -1 5 C-0.34 5.33 0.32 5.66 1 6 C0.34 4.35 -0.32 2.7 -1 1 C-0.67 0.67 -0.34 0.34 0 0 Z " fill="#706F70" transform="translate(94,37)"/>
<path d="M0 0 C0.66 1.32 1.32 2.64 2 4 C1.34 4 0.68 4 0 4 C0 4.66 0 5.32 0 6 C-1.390625 7.4375 -1.390625 7.4375 -3.25 9 C-4.15492187 9.7734375 -4.15492187 9.7734375 -5.078125 10.5625 C-6.9777839 11.98338308 -8.84928605 13.01029093 -11 14 C-11 14.66 -11 15.32 -11 16 C-13.375 17.6875 -13.375 17.6875 -16 19 C-16.66 18.67 -17.32 18.34 -18 18 C-17.319375 17.505 -16.63875 17.01 -15.9375 16.5 C-12.8702353 13.88956196 -10.38952317 11.09348766 -7.78125 8.0390625 C-5.31630247 5.21734625 -2.68115555 2.61576151 0 0 Z " fill="#F1DADE" transform="translate(99,18)"/>
<path d="M0 0 C3.66771845 1.83385923 5.46834996 3.25062829 8.25 6.125 C8.95640625 6.84945312 9.6628125 7.57390625 10.390625 8.3203125 C11.18726563 9.15175781 11.18726563 9.15175781 12 10 C11.34 10.66 10.68 11.32 10 12 C8.79557292 10.47005208 7.59114583 8.94010417 6.38671875 7.41015625 C4.94316909 5.72844923 4.94316909 5.72844923 2 5 C1.01 5.495 1.01 5.495 0 6 C-0.99 5.67 -1.98 5.34 -3 5 C-3.33 6.32 -3.66 7.64 -4 9 C-5.32 8.67 -6.64 8.34 -8 8 C-5.36 5.36 -2.72 2.72 0 0 Z " fill="#903044" transform="translate(60,71)"/>
<path d="M0 0 C0 5.31379462 -0.18118541 7.08326709 -4 11 C-6.30965848 12.05352843 -8.6429774 13.05719096 -11 14 C-12.88029239 15.53951047 -12.88029239 15.53951047 -14 17 C-13.4194679 13.69881206 -12.45131901 12.08865924 -10.05859375 9.765625 C-9.18364258 8.90517578 -9.18364258 8.90517578 -8.29101562 8.02734375 C-7.67935547 7.44082031 -7.06769531 6.85429688 -6.4375 6.25 C-5.82197266 5.64800781 -5.20644531 5.04601563 -4.57226562 4.42578125 C-3.05485187 2.94365619 -1.52829404 1.4709033 0 0 Z " fill="#717070" transform="translate(83,48)"/>
<path d="M0 0 C1 2 1 2 1 6 C1.680625 5.2575 1.680625 5.2575 2.375 4.5 C4 3 4 3 6 3 C6.36923077 7.55384615 6.36923077 7.55384615 4.5 9.8125 C4.005 10.204375 3.51 10.59625 3 11 C0.11562221 9.70700306 -1.87219421 8.34058637 -4 6 C-2.84826645 3.53199953 -1.95216435 1.95216435 0 0 Z " fill="#6A6A6A" transform="translate(25,79)"/>
<path d="M0 0 C0.103125 0.639375 0.20625 1.27875 0.3125 1.9375 C0.539375 2.618125 0.76625 3.29875 1 4 C1.99 4.33 2.98 4.66 4 5 C4 5.66 4 6.32 4 7 C4.66 7 5.32 7 6 7 C6 7.66 6 8.32 6 9 C6.99 8.67 7.98 8.34 9 8 C9 9.65 9 11.3 9 13 C10.32 13.33 11.64 13.66 13 14 C12.01 14.66 11.02 15.32 10 16 C5.71 11.71 1.42 7.42 -3 3 C-2.01 2.01 -1.02 1.02 0 0 Z " fill="#943447" transform="translate(71,88)"/>
<path d="M0 0 C0.99 0.66 1.98 1.32 3 2 C-0.96 5.96 -4.92 9.92 -9 14 C-9.33 12.68 -9.66 11.36 -10 10 C-8.6875 8.25 -8.6875 8.25 -7 7 C-6.34 7 -5.68 7 -5 7 C-4.9175 6.21625 -4.835 5.4325 -4.75 4.625 C-4 2 -4 2 -1.9375 0.6875 C-1.298125 0.460625 -0.65875 0.23375 0 0 Z " fill="#F2F4F4" transform="translate(85,42)"/>
<path d="M0 0 C0.33 0.66 0.66 1.32 1 2 C-0.47169811 5.73584906 -0.47169811 5.73584906 -3 7 C-2.72382467 8.94074861 -2.72382467 8.94074861 -2 11 C-1.01 11.66 -0.02 12.32 1 13 C0.01 14.485 0.01 14.485 -1 16 C-1.66 16 -2.32 16 -3 16 C-3.433125 15.030625 -3.86625 14.06125 -4.3125 13.0625 C-5.7014861 9.72268235 -5.7014861 9.72268235 -9 9 C-6.03 6.03 -3.06 3.06 0 0 Z " fill="#9B344B" transform="translate(72,32)"/>
<path d="M0 0 C1.32 0.33 2.64 0.66 4 1 C3.278125 1.70125 2.55625 2.4025 1.8125 3.125 C-0.99823813 5.92770745 -3.49516226 8.92262792 -6 12 C-6.66 10.68 -7.32 9.36 -8 8 C-7.01 8 -6.02 8 -5 8 C-5 6.68 -5 5.36 -5 4 C-3.68 4 -2.36 4 -1 4 C-0.67 2.68 -0.34 1.36 0 0 Z " fill="#9A354A" transform="translate(85,28)"/>
<path d="M0 0 C0.99 0 1.98 0 3 0 C3 0.66 3 1.32 3 2 C3.66 2 4.32 2 5 2 C5 2.66 5 3.32 5 4 C4.34 4 3.68 4 3 4 C3 5.65 3 7.3 3 9 C1.35 9 -0.3 9 -2 9 C-1.835 8.236875 -1.67 7.47375 -1.5 6.6875 C-0.90854604 3.96403764 -0.90854604 3.96403764 -1 1 C-0.67 0.67 -0.34 0.34 0 0 Z " fill="#A32039" transform="translate(87,19)"/>
<path d="M0 0 C3.875 1.75 3.875 1.75 5 4 C3.35 4 1.7 4 0 4 C0 4.99 0 5.98 0 7 C-2.64 7.66 -5.28 8.32 -8 9 C-7.04270084 7.87411986 -6.08412105 6.7493285 -5.125 5.625 C-4.59132813 4.99851562 -4.05765625 4.37203125 -3.5078125 3.7265625 C-2.38567993 2.44163349 -1.20628025 1.20628025 0 0 Z " fill="#963A4F" transform="translate(92,12)"/>
<path d="M0 0 C0.66 0.33 1.32 0.66 2 1 C-1.63 4.63 -5.26 8.26 -9 12 C-9.66 11.34 -10.32 10.68 -11 10 C-7.89564886 5.86086514 -4.68223385 2.34111692 0 0 Z " fill="#962A3F" transform="translate(41,101)"/>
<path d="M0 0 C2.875 1.125 2.875 1.125 6 3 C7.375 6.1875 7.375 6.1875 8 9 C7.01 9.33 6.02 9.66 5 10 C1.32769295 6.92000054 0.43197635 4.7517398 0 0 Z " fill="#747474" transform="translate(95,63)"/>
<path d="M0 0 C3.16717283 1.58358642 4.73268318 2.45263699 6.3125 5.6875 C6.6528125 6.8321875 6.6528125 6.8321875 7 8 C6.01 8.495 6.01 8.495 5 9 C4.34 8.01 3.68 7.02 3 6 C2.01 6.33 1.02 6.66 0 7 C-0.66 6.67 -1.32 6.34 -2 6 C-1.49396008 3.83125748 -1.00016187 2.00032373 0 0 Z " fill="#A11F38" transform="translate(40,26)"/>
<path d="M0 0 C0.66 0.66 1.32 1.32 2 2 C1.90255465 5.60547802 1.00048121 6.99941475 -1.3125 9.8125 C-4 12 -4 12 -8 12 C-7.34 10.68 -6.68 9.36 -6 8 C-5.01 8 -4.02 8 -3 8 C-2.67 7.01 -2.34 6.02 -2 5 C-1.01 5 -0.02 5 1 5 C0.34 3.68 -0.32 2.36 -1 1 C-0.67 0.67 -0.34 0.34 0 0 Z " fill="#932B40" transform="translate(67,43)"/>
<path d="M0 0 C1.32 0.33 2.64 0.66 4 1 C2.02 3.31 0.04 5.62 -2 8 C-0.68 9.65 0.64 11.3 2 13 C-1.26954202 12.43628586 -2.82575883 11.50037734 -5 9 C-3.46395304 5.85808576 -1.94268841 2.91403262 0 0 Z " fill="#F7DCE0" transform="translate(26,101)"/>
<path d="M0 0 C0.33 1.32 0.66 2.64 1 4 C-3.73135853 8.84964249 -3.73135853 8.84964249 -7.109375 9.25 C-9.25 9.0625 -9.25 9.0625 -13 8 C-14.5 5.9375 -14.5 5.9375 -15 4 C-14.484375 4.350625 -13.96875 4.70125 -13.4375 5.0625 C-10.00063647 6.38437059 -7.5515773 5.77488959 -4 5 C-0.75150023 3.27773504 -0.75150023 3.27773504 0 0 Z " fill="#F9DEE3" transform="translate(68,109)"/>
<path d="M0 0 C0.99 0.33 1.98 0.66 3 1 C3.38218767 2.65614657 3.71395102 4.32457024 4 6 C3 7 3 7 0.4375 7.0625 C-0.7690625 7.0315625 -0.7690625 7.0315625 -2 7 C-2.33 5.35 -2.66 3.7 -3 2 C-2.01 1.67 -1.02 1.34 0 1 C0 0.67 0 0.34 0 0 Z " fill="#656565" transform="translate(18,64)"/>
<path d="M0 0 C0.33 0.66 0.66 1.32 1 2 C0.06421005 4.35981813 -0.93347808 6.69631264 -2 9 C-1.01 9.33 -0.02 9.66 1 10 C0.34 10.66 -0.32 11.32 -1 12 C-2.65 10.02 -4.3 8.04 -6 6 C-4.02 4.02 -2.04 2.04 0 0 Z " fill="#943D52" transform="translate(40,23)"/>
<path d="M0 0 C0.33 0.99 0.66 1.98 1 3 C-1.31 3 -3.62 3 -6 3 C-6.33 3.99 -6.66 4.98 -7 6 C-7.66 6 -8.32 6 -9 6 C-9 4.68 -9 3.36 -9 2 C-5.86501708 0.14223235 -3.62528568 -0.20140476 0 0 Z " fill="#9A3E51" transform="translate(65,11)"/>
<path d="M0 0 C3 0 3 0 5.6875 2.375 C8 5 8 5 8 7 C5.69 6.67 3.38 6.34 1 6 C0.34 4.35 -0.32 2.7 -1 1 C-0.67 0.67 -0.34 0.34 0 0 Z " fill="#777776" transform="translate(94,37)"/>
<path d="M0 0 C0.99 0 1.98 0 3 0 C3.33 1.32 3.66 2.64 4 4 C3.01 4.495 3.01 4.495 2 5 C1.34 4.34 0.68 3.68 0 3 C0 2.01 0 1.02 0 0 Z M7 -1 C7.66 -0.01 8.32 0.98 9 2 C7.02 2.99 7.02 2.99 5 4 C4.67 3.01 4.34 2.02 4 1 C4.99 0.34 5.98 -0.32 7 -1 Z " fill="#656565" transform="translate(16,34)"/>
<path d="M0 0 C0 3 0 3 -1.375 4.6875 C-3 6 -3 6 -5 6 C-5.2475 6.639375 -5.495 7.27875 -5.75 7.9375 C-7 10 -7 10 -9.078125 10.62890625 C-10.02945313 10.81259766 -10.02945313 10.81259766 -11 11 C-7.6189962 6.86378916 -4.33409466 3.18683431 0 0 Z " fill="#F0CCD4" transform="translate(79,39)"/>
<path d="M0 0 C0.66 0.33 1.32 0.66 2 1 C1.67 1.99 1.34 2.98 1 4 C-0.32 4 -1.64 4 -3 4 C-3 5.32 -3 6.64 -3 8 C-3.99 8 -4.98 8 -6 8 C-6.33 7.01 -6.66 6.02 -7 5 C-6.34 4.01 -5.68 3.02 -5 2 C-3.68 2 -2.36 2 -1 2 C-0.67 1.34 -0.34 0.68 0 0 Z " fill="#A91D38" transform="translate(83,28)"/>
<path d="M0 0 C0.66 0 1.32 0 2 0 C2 1.32 2 2.64 2 4 C3.32 4.66 4.64 5.32 6 6 C6 6.99 6 7.98 6 9 C5.01 9 4.02 9 3 9 C1.61328125 7.46875 1.61328125 7.46875 0.3125 5.5 C-0.12449219 4.8503125 -0.56148437 4.200625 -1.01171875 3.53125 C-1.50091797 2.77328125 -1.50091797 2.77328125 -2 2 C-1.34 1.34 -0.68 0.68 0 0 Z " fill="#8D3C4D" transform="translate(25,106)"/>
<path d="M0 0 C1.32 0.33 2.64 0.66 4 1 C4 2.65 4 4.3 4 6 C1.6875 6.625 1.6875 6.625 -1 7 C-1.99 6.34 -2.98 5.68 -4 5 C-2.35 4.34 -0.7 3.68 1 3 C0.67 2.01 0.34 1.02 0 0 Z " fill="#656565" transform="translate(109,62)"/>
<path d="M0 0 C2.31 1.98 4.62 3.96 7 6 C4 6 4 6 2 5 C2 5.99 2 6.98 2 8 C1.34 8 0.68 8 0 8 C-1.09658936 4.71023192 -0.79953138 3.28696233 0 0 Z " fill="#FCEAED" transform="translate(33,29)"/>
<path d="M0 0 C7.48291572 6.15034169 7.48291572 6.15034169 10 10 C7.6875 9.8125 7.6875 9.8125 5 9 C3.375 6.625 3.375 6.625 2 4 C0.41754725 2.24850835 0.41754725 2.24850835 -1 1 C-0.67 0.67 -0.34 0.34 0 0 Z " fill="#8F293E" transform="translate(41,24)"/>
<path d="M0 0 C1.60725635 3.21451269 1.05748185 6.43612536 1 10 C-0.65 8.68 -2.3 7.36 -4 6 C-2.84826645 3.53199953 -1.95216435 1.95216435 0 0 Z " fill="#727272" transform="translate(25,79)"/>
<path d="M0 0 C0 3 0 3 -1 6 C-1.66 6 -2.32 6 -3 6 C-3 6.66 -3 7.32 -3 8 C-5.375 9.6875 -5.375 9.6875 -8 11 C-8.66 10.67 -9.32 10.34 -10 10 C-9.278125 9.46375 -8.55625 8.9275 -7.8125 8.375 C-4.752158 5.7907112 -2.48779989 3.12751986 0 0 Z " fill="#ECC7CD" transform="translate(91,26)"/>
<path d="M0 0 C2 1.3125 2 1.3125 4 3 C4 3.99 4 4.98 4 6 C2.68 6 1.36 6 0 6 C-1.34164079 6.2981424 -2.67851173 6.62243192 -4 7 C-2.68 4.69 -1.36 2.38 0 0 Z " fill="#626362" transform="translate(93,39)"/>
<path d="M0 0 C1.32 0.66 2.64 1.32 4 2 C3.34 2.66 2.68 3.32 2 4 C1.34 4 0.68 4 0 4 C-0.33 4.99 -0.66 5.98 -1 7 C-1.66 7 -2.32 7 -3 7 C-3.33 6.01 -3.66 5.02 -4 4 C-2.68 2.68 -1.36 1.36 0 0 Z " fill="#686868" transform="translate(15,26)"/>
<path d="M0 0 C1 3 1 3 0.4375 5.125 C-1 7 -1 7 -4.125 7.75 C-5.548125 7.87375 -5.548125 7.87375 -7 8 C-6.02133662 6.85373678 -5.04205413 5.70800212 -4.0625 4.5625 C-3.51722656 3.92441406 -2.97195312 3.28632812 -2.41015625 2.62890625 C-1.63204305 1.73008851 -0.84063472 0.84063472 0 0 Z " fill="#913747" transform="translate(51,80)"/>
<path d="M0 0 C0.99 0.66 1.98 1.32 3 2 C0.25 6.875 0.25 6.875 -2 8 C-2 7.01 -2 6.02 -2 5 C-2.66 4.67 -3.32 4.34 -4 4 C-2.68 2.68 -1.36 1.36 0 0 Z " fill="#9C3348" transform="translate(77,27)"/>
<path d="M0 0 C0.33 0.99 0.66 1.98 1 3 C-0.9375 5.6875 -0.9375 5.6875 -3 8 C-4.32 7.67 -5.64 7.34 -7 7 C-4.69 4.69 -2.38 2.38 0 0 Z " fill="#F1D2D7" transform="translate(43,101)"/>
<path d="M0 0 C0.79921875 0.11085938 1.5984375 0.22171875 2.421875 0.3359375 C3.32679687 0.47902344 3.32679687 0.47902344 4.25 0.625 C4.25 1.615 4.25 2.605 4.25 3.625 C3.92 3.295 3.59 2.965 3.25 2.625 C-0.98314767 2.38538787 -4.11736489 2.30011353 -7.75 4.625 C-8.08 3.635 -8.41 2.645 -8.75 1.625 C-5.5750906 -0.2828584 -3.64414789 -0.5359041 0 0 Z " fill="#F6D7DC" transform="translate(60.75,96.375)"/>
<path d="M0 0 C0.33 0.66 0.66 1.32 1 2 C2.32 1.67 3.64 1.34 5 1 C5.33 2.65 5.66 4.3 6 6 C5.01 6 4.02 6 3 6 C0.8125 3.5 0.8125 3.5 -1 1 C-0.67 0.67 -0.34 0.34 0 0 Z " fill="#737373" transform="translate(11,31)"/>
<path d="M0 0 C0 2.83967231 -0.40267181 5.23735711 -1 8 C-2.32 7.67 -3.64 7.34 -5 7 C-3.47793991 4.37098712 -2.15634036 2.15634036 0 0 Z " fill="#952F41" transform="translate(43,88)"/>
<path d="M0 0 C2.64 0.66 5.28 1.32 8 2 C7.67 2.66 7.34 3.32 7 4 C4.69 3.67 2.38 3.34 0 3 C0 2.01 0 1.02 0 0 Z " fill="#9F4C5B" transform="translate(55,112)"/>
<path d="M0 0 C0.99 0.33 1.98 0.66 3 1 C0.69 3.31 -1.62 5.62 -4 8 C-4.33 7.34 -4.66 6.68 -5 6 C-4.0625 3.875 -4.0625 3.875 -3 2 C-2.01 2 -1.02 2 0 2 C0 1.34 0 0.68 0 0 Z " fill="#922C3F" transform="translate(48,93)"/>
<path d="M0 0 C1.16959987 0.97566112 2.33561177 1.955625 3.5 2.9375 C4.1496875 3.48277344 4.799375 4.02804688 5.46875 4.58984375 C5.9740625 5.05519531 6.479375 5.52054687 7 6 C7 6.33 7 6.66 7 7 C5.35 7 3.7 7 2 7 C1.34 4.69 0.68 2.38 0 0 Z " fill="#FDE7EA" transform="translate(65,88)"/>
<path d="M0 0 C0.99 0.66 1.98 1.32 3 2 C2.67 3.65 2.34 5.3 2 7 C0.02 5.68 -1.96 4.36 -4 3 C-2.68 2.67 -1.36 2.34 0 2 C0 1.34 0 0.68 0 0 Z " fill="#F0DFE0" transform="translate(64,68)"/>
<path d="M0 0 C2.31 0.66 4.62 1.32 7 2 C4.64046906 4.35953094 3.22104383 4.49141413 0 5 C-0.66 4.01 -1.32 3.02 -2 2 C-1.34 2 -0.68 2 0 2 C0 1.34 0 0.68 0 0 Z " fill="#656363" transform="translate(30,45)"/>
<path d="M0 0 C1 2 1 2 0.4375 4 C-1.57302108 6.79724672 -3.74418077 7.15065585 -7 8 C-6.02133662 6.85373678 -5.04205413 5.70800212 -4.0625 4.5625 C-3.51722656 3.92441406 -2.97195312 3.28632812 -2.41015625 2.62890625 C-1.63204305 1.73008851 -0.84063472 0.84063472 0 0 Z " fill="#9A4052" transform="translate(72,32)"/>
<path d="M0 0 C0.99 0.33 1.98 0.66 3 1 C3 2.65 3 4.3 3 6 C3.66 6 4.32 6 5 6 C5 6.66 5 7.32 5 8 C3.68 8 2.36 8 1 8 C0.67 5.36 0.34 2.72 0 0 Z " fill="#636363" transform="translate(39,66)"/>
<path d="M0 0 C5.445 1.485 5.445 1.485 11 3 C11 3.33 11 3.66 11 4 C5.04296875 4.390625 5.04296875 4.390625 3 4 C2.01 2.68 1.02 1.36 0 0 Z " fill="#963E51" transform="translate(55,25)"/>
<path d="M0 0 C0.66 0 1.32 0 2 0 C2.33 2.97 2.66 5.94 3 9 C2.34 8.67 1.68 8.34 1 8 C0.40644386 5.35139573 0.25790731 2.70802678 0 0 Z " fill="#964353" transform="translate(51,104)"/>
<path d="M0 0 C1.32 0.33 2.64 0.66 4 1 C0.535 3.97 0.535 3.97 -3 7 C-2.67 5.68 -2.34 4.36 -2 3 C-1.34 3 -0.68 3 0 3 C0 2.01 0 1.02 0 0 Z " fill="#FDE4E9" transform="translate(34,93)"/>
<path d="M0 0 C0.66 0 1.32 0 2 0 C1.43628586 3.26954202 0.50037734 4.82575883 -2 7 C-2.99 6.67 -3.98 6.34 -5 6 C-4.34 6 -3.68 6 -3 6 C-3 5.01 -3 4.02 -3 3 C-2.01 3 -1.02 3 0 3 C0 2.01 0 1.02 0 0 Z " fill="#95273E" transform="translate(76,37)"/>
<path d="M0 0 C2.375 0.3125 2.375 0.3125 5 1 C5.66 1.99 6.32 2.98 7 4 C6.34 4.66 5.68 5.32 5 6 C3.35 4.02 1.7 2.04 0 0 Z " fill="#F0CFD5" transform="translate(44,26)"/>
<path d="M0 0 C0.33 0.99 0.66 1.98 1 3 C-0.32 4.32 -1.64 5.64 -3 7 C-3.99 6.67 -4.98 6.34 -6 6 C-5.34 6 -4.68 6 -4 6 C-3.71125 5.38125 -3.4225 4.7625 -3.125 4.125 C-2 2 -2 2 0 0 Z " fill="#F2D5DA" transform="translate(35,109)"/>
<path d="M0 0 C0.33 0.99 0.66 1.98 1 3 C-1.475 4.485 -1.475 4.485 -4 6 C-4.99 5.34 -5.98 4.68 -7 4 C-5.68 4 -4.36 4 -3 4 C-3 3.34 -3 2.68 -3 2 C-2.01 1.34 -1.02 0.68 0 0 Z " fill="#913043" transform="translate(67,109)"/>
<path d="M0 0 C0.66 0.99 1.32 1.98 2 3 C0.68 4.32 -0.64 5.64 -2 7 C-3 4 -3 4 -2 1 C-1.34 0.67 -0.68 0.34 0 0 Z " fill="#767676" transform="translate(86,54)"/>
<path d="M0 0 C2.31 1.98 4.62 3.96 7 6 C6.01 6.33 5.02 6.66 4 7 C1.23609263 4.59660228 0.95934081 3.83736322 0 0 Z " fill="#FDE2E7" transform="translate(51,47)"/>
<path d="M0 0 C1.98 1.65 3.96 3.3 6 5 C5.34 5.66 4.68 6.32 4 7 C3.67 6.01 3.34 5.02 3 4 C2.01 4.33 1.02 4.66 0 5 C0 3.33333333 0 1.66666667 0 0 Z " fill="#FCE1E5" transform="translate(45,41)"/>
<path d="M0 0 C0.33 0 0.66 0 1 0 C1 1.98 1 3.96 1 6 C0.34 5.67 -0.32 5.34 -1 5 C-3.09821215 5.39938767 -3.09821215 5.39938767 -5 6 C-3.35830472 3.97945196 -1.69088222 1.97956942 0 0 Z " fill="#993F53" transform="translate(83,21)"/>
<path d="M0 0 C2 3 2 3 1.625 6.1875 C1.41875 7.115625 1.2125 8.04375 1 9 C-1 6 -1 6 -0.625 2.8125 C-0.41875 1.884375 -0.2125 0.95625 0 0 Z " fill="#A0495E" transform="translate(54,16)"/>
<path d="M0 0 C1.65 0 3.3 0 5 0 C4.34 1.32 3.68 2.64 3 4 C1.68 3.67 0.36 3.34 -1 3 C-0.67 2.01 -0.34 1.02 0 0 Z " fill="#A01C37" transform="translate(92,16)"/>
</svg>
